# xmcd
#
# Track frame offsets: 
#        150
#        15401
#        28102
#        44547
#        61589
#        75288
#        86736
#        100739
#        119197
#        138707
#        149803
#        170454
#        181740
#        199605
#
# Disc length: 2890 seconds
#
# Revision: 0
# Processed by: cddbd v1.5.2PL0 Copyright (c) Steve Scherf et al.
# Submitted via: ExactAudioCopy v0.99pb3
#
DISCID=bd0b480e
DTITLE=Al Garner - Get Out Blues
DYEAR=2007
DGENRE=Blues
TTITLE0=Fatback
TTITLE1=I'll Be Gone
TTITLE2=Something's Wrong
TTITLE3=Tell Me
TTITLE4=Don't Play In Your Own Back Yard
TTITLE5=Set Me Free
TTITLE6=Come On Back Home
TTITLE7=Westlin' With The Blues
TTITLE8=About Money
TTITLE9=Get Out Blues
TTITLE10=Stop Cheatin' And Lyin'
TTITLE11=Bright Lights Big City
TTITLE12=School Of Hard Knocks
TTITLE13=The Eyes Don't Lie
EXTD=
EXTT0=
EXTT1=
EXTT2=
EXTT3=
EXTT4=
EXTT5=
EXTT6=
EXTT7=
EXTT8=
EXTT9=
EXTT10=
EXTT11=
EXTT12=
EXTT13=
PLAYORDER=
